<svg xmlns="http://www.w3.org/2000/svg" height="24" viewBox="0 96 960 960" width="24">
	<path fill="#FFFFFF" d="M120 496V256h80v94q51-64 124.5-99T480 216q150 0 255 105t105 255h-80q0-117-81.5-198.5T480 296q-69 0-129 32t-101 88h110v80H120Zm2 120h82q12 93 76.5 157.5T435 852l48 84q-138 0-242-91.5T122 616Zm412 70-94-94V376h80v184l56 56-42 70Zm185 370-12-60q-12-5-22.5-10.5T663 972l-58 18-40-68 46-40q-2-13-2-26t2-26l-46-40 40-68 58 18q11-8 21.5-13.5T707 716l12-60h80l12 60q12 5 23 11.5t21 14.5l58-20 40 70-46 40q2 13 2 25t-2 25l46 40-40 68-58-18q-11 8-21.5 13.5T811 996l-12 60h-80Zm40-120q33 0 56.5-23.5T839 856q0-33-23.5-56.5T759 776q-33 0-56.5 23.5T679 856q0 33 23.5 56.5T759 936Z"/>
</svg>